<?xml version="1.0" encoding="utf-8"?>
<!-- Generator: Adobe Illustrator 27.0.1, SVG Export Plug-In . SVG Version: 6.00 Build 0)  -->
<svg version="1.1" id="Layer_1" xmlns="http://www.w3.org/2000/svg" xmlns:xlink="http://www.w3.org/1999/xlink" x="0px" y="0px"
	 viewBox="0 0 1197.1 607.1" style="enable-background:new 0 0 1197.1 607.1;" xml:space="preserve">
<style type="text/css">
	.st0{fill:#008FD4;}
	.st1{fill:none;}
	.st2{fill:#EC008C;}
	.st3{fill:#F7901E;}
	.st4{fill:#662D91;}
	.st5{fill:#FFCB05;}
	.st6{fill:#20BEC6;}
</style>
<g>
	<polygon class="st0" points="588.3,288.5 529.7,92 474.5,92 416.3,288.4 356.3,92 286.4,92 387.8,405.9 442.5,405.9 501.9,208.4 
		561.7,405.9 616.4,405.9 717.8,92 648.4,92 	"/>
	<polygon class="st0" points="125.6,92 71.8,92 71.8,405.9 142,405.9 142,283.2 270.8,283.2 270.8,222.3 142,222.3 142,152.4 
		277.9,152.4 277.9,92 142,92 	"/>
	<path class="st1" d="M830.5,344.5h22.9c19,0,35.5-3.8,49.6-11.6c1-0.6,1.9-1.3,2.9-1.8v-31.6L830.5,344.5z"/>
	<path class="st1" d="M853.4,153.3h-22.9l75.4,45v-31.6c-1.1-0.7-2.1-1.5-3.3-2.1C888.4,157.1,872,153.3,853.4,153.3z"/>
	<path class="st2" d="M948.5,117.5c8.5,5.3,16.5,11.4,23.8,18.3c15,14.1,26.6,30.6,34.9,49.6c8.3,19,12.4,40.2,12.4,63.6
		c0,22.8-4.1,43.8-12.4,62.9c-8.3,19.1-19.9,35.7-34.7,49.8c-7.1,6.8-14.9,12.8-23.3,18.1L1131.6,271c16.7-10,16.7-34.2,0-44.1
		L948.5,117.5z"/>
	<path class="st3" d="M944.3,221.3c-2-8.6-4.9-16.5-8.9-23.7c-7.2-13.2-17.2-23.4-29.6-30.8v31.6L944.3,221.3z"/>
	<path class="st3" d="M905.8,331.1c12.6-7.6,22.7-17.9,29.8-31.3c3.8-7.1,6.6-14.8,8.6-23.2l-38.4,22.9V331.1z"/>
	<path class="st0" d="M853.4,153.3c18.7,0,35,3.8,49.1,11.3c1.2,0.6,2.2,1.4,3.3,2.1v-68c-16.1-4.5-33.3-6.8-51.6-6.8h-56h-24.5h-46
		l0.3,0.1l102.5,61.2H853.4z"/>
	<path class="st0" d="M902.9,333c-14.1,7.7-30.6,11.6-49.6,11.6h-22.9L728,405.7l-0.3,0.1H776h22.2h56.9c17.9,0,34.8-2.3,50.7-6.8
		v-68C904.8,331.7,904,332.4,902.9,333z"/>
	<path class="st4" d="M1007.2,311.8c8.3-19.1,12.4-40.1,12.4-62.9c0-23.4-4.1-44.6-12.4-63.6c-8.3-19-19.9-35.5-34.9-49.6
		c-7.3-6.9-15.3-13-23.8-18.3l-1.6-1c-8.4-5.1-17.4-9.6-27-13.2c-4.6-1.7-9.3-3.2-14-4.5v68c12.4,7.4,22.4,17.6,29.6,30.8
		c4,7.3,6.9,15.2,8.9,23.7l46.2,27.6l-46.3,27.7c-1.9,8.4-4.8,16.2-8.6,23.2c-7.2,13.3-17.2,23.7-29.8,31.3v68
		c4.9-1.4,9.7-3,14.5-4.8c9.1-3.5,17.6-7.8,25.6-12.6l3.4-2c8.3-5.3,16.1-11.3,23.3-18.1C987.3,347.6,998.9,331,1007.2,311.8z"/>
	<polygon class="st5" points="905.8,198.3 830.5,153.3 798.2,153.3 798.2,344.5 830.5,344.5 905.8,299.5 	"/>
	<polygon class="st6" points="798.2,344.5 798.2,153.3 830.5,153.3 728,92.1 727.7,92 727.7,405.9 728,405.7 830.5,344.5 	"/>
	<polygon class="st6" points="944.3,221.3 905.8,198.3 905.8,299.5 944.2,276.6 990.5,248.9 	"/>
	<g>
		<path class="st4" d="M442.1,502.4c-2.1,0.9-4.6,1.3-7.4,1.3c-2.4,0-4.6-0.4-6.6-1.2c-2-0.8-3.7-2-5.2-3.5
			c-1.5-1.5-2.6-3.4-3.4-5.5c-0.8-2.1-1.2-4.5-1.2-7.1c0-2.5,0.4-4.9,1.2-7c0.8-2.2,1.9-4,3.4-5.5c1.5-1.5,3.2-2.7,5.2-3.5
			c2-0.8,4.2-1.2,6.6-1.2c2.7,0,5.1,0.4,7.2,1.3c2.1,0.9,3.8,2.1,5.2,3.7l8.4-8.4c-2.6-2.5-5.6-4.4-9-5.8c-3.4-1.4-7.4-2.1-11.8-2.1
			c-4.2,0-8.1,0.7-11.6,2.2c-3.5,1.4-6.6,3.5-9.3,6c-2.7,2.6-4.7,5.6-6.2,9.1c-1.5,3.5-2.2,7.3-2.2,11.3c0,4,0.7,7.8,2.2,11.3
			c1.5,3.5,3.5,6.6,6.2,9.2c2.7,2.6,5.8,4.7,9.3,6.1c3.5,1.4,7.4,2.2,11.6,2.2c4.6,0,8.6-0.7,12.1-2.1c3.5-1.4,6.5-3.4,9.1-5.9
			l-8.4-8.4C446,500.3,444.2,501.6,442.1,502.4z"/>
		<path class="st4" d="M512.5,465.9c-2.7-2.6-5.8-4.6-9.3-6.1c-3.5-1.4-7.4-2.2-11.6-2.2c-4.2,0-8.1,0.7-11.7,2.2
			c-3.6,1.4-6.7,3.5-9.3,6.1c-2.6,2.6-4.7,5.6-6.1,9.1c-1.5,3.5-2.2,7.3-2.2,11.4c0,4,0.7,7.8,2.2,11.3c1.5,3.5,3.5,6.6,6.2,9.2
			c2.7,2.6,5.8,4.7,9.4,6.2c3.6,1.5,7.5,2.2,11.7,2.2c4.2,0,8-0.7,11.5-2.2c3.5-1.5,6.6-3.5,9.2-6.1c2.6-2.6,4.7-5.6,6.1-9.1
			c1.5-3.5,2.2-7.3,2.2-11.3c0-4.1-0.7-7.9-2.2-11.4C517.3,471.5,515.2,468.5,512.5,465.9z M506.1,495.5c-1.4,2.6-3.3,4.7-5.8,6.2
			c-2.5,1.5-5.4,2.2-8.7,2.2c-2.5,0-4.7-0.4-6.7-1.2c-2-0.8-3.8-2-5.2-3.5c-1.5-1.6-2.6-3.4-3.4-5.6c-0.8-2.2-1.2-4.5-1.2-7.2
			c0-3.5,0.7-6.5,2-9.1c1.4-2.6,3.3-4.6,5.8-6.1c2.5-1.4,5.4-2.2,8.7-2.2c2.4,0,4.7,0.4,6.7,1.2c2,0.8,3.8,2,5.3,3.5
			c1.5,1.6,2.6,3.4,3.4,5.5c0.8,2.1,1.2,4.5,1.2,7.1C508.2,489.8,507.5,492.8,506.1,495.5z"/>
		<path class="st4" d="M565.2,485.8c-1.5-1.3-3.2-2.4-5.1-3.2c-1.9-0.8-3.7-1.5-5.6-2.2c-1.9-0.6-3.6-1.3-5.1-1.9
			c-1.6-0.6-2.8-1.4-3.7-2.2c-0.9-0.9-1.4-2-1.4-3.4c0-1.5,0.6-2.7,1.9-3.5c1.3-0.8,3-1.2,5.1-1.2c2.1,0,4,0.4,5.7,1.3
			c1.7,0.8,3.4,2.1,5.1,3.9l8.1-8.1c-2.1-2.3-4.8-4.2-8-5.5c-3.2-1.4-6.8-2-10.7-2c-3.8,0-7.2,0.6-10.2,1.9c-3,1.3-5.3,3.2-7,5.6
			c-1.7,2.5-2.5,5.4-2.5,8.9c0,2.8,0.5,5.1,1.4,7c0.9,1.9,2.2,3.4,3.7,4.7c1.5,1.2,3.3,2.2,5.1,3.1c1.9,0.8,3.7,1.6,5.6,2.2
			c1.8,0.6,3.5,1.2,5.1,1.9c1.6,0.7,2.8,1.5,3.7,2.4c0.9,0.9,1.4,2.2,1.4,3.6c0,1.7-0.7,3-2.2,4c-1.4,1-3.5,1.5-6,1.5
			c-2.9,0-5.4-0.6-7.6-1.7c-2.2-1.1-4.2-2.7-6-4.8l-8,8c2.7,3,5.7,5.3,8.9,6.8c3.3,1.5,7.2,2.2,11.9,2.2c6.7,0,12-1.5,15.8-4.5
			c3.8-3,5.7-7.2,5.7-12.5c0-2.9-0.5-5.4-1.5-7.3C568,488.8,566.7,487.2,565.2,485.8z"/>
		<polygon class="st4" points="577,469.4 594.5,469.4 594.5,514.2 607,514.2 607,469.4 624.4,469.4 624.4,458.6 577,458.6 		"/>
		<path class="st4" d="M647,458.6l-22,55.7h12.9l3.7-10h21.8l3.6,10h13.2l-21.8-55.7H647z M645.3,494.1l7.3-19.8l7.1,19.8H645.3z"/>
		<path class="st4" d="M741.2,489.3c2.8-1.4,5-3.3,6.6-5.7s2.4-5.3,2.4-8.7c0-3.2-0.8-6-2.3-8.4c-1.6-2.5-3.7-4.4-6.5-5.8
			c-2.8-1.4-6-2.1-9.8-2.1h-10.3h-2.9h-9.5v55.7h12.5v-22.9h1.3l16.5,22.9h14.7l-17.7-23.3C737.9,490.6,739.6,490.1,741.2,489.3z
			 M721.2,468.3h8.9c2.4,0,4.3,0.7,5.6,2c1.3,1.3,2,3,2,5c0,2.1-0.7,3.8-2,5c-1.4,1.2-3.3,1.9-5.7,1.9h-8.8V468.3z"/>
		<rect x="763.8" y="458.6" class="st4" width="12.5" height="55.7"/>
		<path class="st4" d="M825.5,502.4c-2.1,0.9-4.6,1.3-7.4,1.3c-2.4,0-4.6-0.4-6.6-1.2c-2-0.8-3.7-2-5.2-3.5
			c-1.5-1.5-2.6-3.4-3.4-5.5c-0.8-2.1-1.2-4.5-1.2-7.1c0-2.5,0.4-4.9,1.2-7c0.8-2.2,1.9-4,3.4-5.5c1.5-1.5,3.2-2.7,5.2-3.5
			c2-0.8,4.2-1.2,6.6-1.2c2.7,0,5.1,0.4,7.2,1.3c2.1,0.9,3.8,2.1,5.2,3.7l8.4-8.4c-2.6-2.5-5.6-4.4-9-5.8c-3.4-1.4-7.4-2.1-11.8-2.1
			c-4.2,0-8.1,0.7-11.6,2.2c-3.5,1.4-6.6,3.5-9.3,6c-2.7,2.6-4.7,5.6-6.2,9.1c-1.5,3.5-2.2,7.3-2.2,11.3c0,4,0.7,7.8,2.2,11.3
			c1.5,3.5,3.5,6.6,6.2,9.2c2.7,2.6,5.8,4.7,9.3,6.1c3.5,1.4,7.4,2.2,11.6,2.2c4.6,0,8.6-0.7,12.1-2.1c3.5-1.4,6.5-3.4,9.1-5.9
			l-8.4-8.4C829.4,500.3,827.6,501.6,825.5,502.4z"/>
		<path class="st4" d="M887.1,514.2h13.2l-21.8-55.7h-11.3l-22,55.7H858l3.7-10h21.8L887.1,514.2z M865.5,494.1l7.3-19.8l7.1,19.8
			H865.5z"/>
	</g>
</g>
</svg>
