<?xml version="1.0" encoding="utf-8"?>
<!-- Generator: Adobe Illustrator 27.0.1, SVG Export Plug-In . SVG Version: 6.00 Build 0)  -->
<svg version="1.1" id="Layer_1" xmlns="http://www.w3.org/2000/svg" xmlns:xlink="http://www.w3.org/1999/xlink" x="0px" y="0px"
	 viewBox="0 0 784.2 607.1" style="enable-background:new 0 0 784.2 607.1;" xml:space="preserve">
<style type="text/css">
	.st0{fill:none;}
	.st1{fill:#EC008C;}
	.st2{fill:#F7901E;}
	.st3{fill:#008FD4;}
	.st4{fill:#662D91;}
	.st5{fill:#FFCB05;}
	.st6{fill:#20BEC6;}
</style>
<g>
	<path class="st0" d="M209.4,466.3h39c32.3,0,60.4-6.5,84.4-19.7c1.7-0.9,3.2-2.1,4.9-3.1v-53.8L209.4,466.3z"/>
	<path class="st0" d="M248.3,140.9h-39l128.3,76.6v-53.7c-1.9-1.1-3.7-2.5-5.6-3.6C308,147.3,280.1,140.9,248.3,140.9z"/>
	<path class="st1" d="M410.3,79.8c14.5,9.1,28.1,19.4,40.5,31.2c25.5,24,45.3,52.1,59.4,84.4c14.1,32.3,21.2,68.4,21.2,108.2
		c0,38.9-7.1,74.5-21.2,107.1c-14.1,32.5-33.8,60.8-59,84.8c-12.2,11.6-25.4,21.8-39.6,30.8l310.4-185.1c28.4-17,28.5-58.1,0-75.1
		L410.3,79.8z"/>
	<path class="st2" d="M403.1,256.6c-3.3-14.6-8.4-28.1-15.1-40.4c-12.3-22.4-29.2-39.8-50.4-52.4v53.7L403.1,256.6z"/>
	<path class="st2" d="M337.6,443.5c21.5-12.9,38.6-30.5,50.7-53.2c6.5-12,11.3-25.2,14.6-39.6l-65.3,39V443.5z"/>
	<path class="st3" d="M248.3,140.9c31.8,0,59.7,6.4,83.6,19.3c2,1.1,3.7,2.4,5.6,3.6V48c-27.4-7.7-56.6-11.6-87.8-11.6h-95.4h-41.6
		H34.5l0.4,0.3l174.4,104.2H248.3z"/>
	<path class="st3" d="M332.7,446.6c-24,13.1-52.1,19.7-84.4,19.7h-39L34.9,570.5l-0.4,0.3h82.2h37.8h96.9c30.4,0,59.2-3.9,86.2-11.5
		V443.5C335.9,444.5,334.4,445.7,332.7,446.6z"/>
	<path class="st4" d="M510.2,410.7c14.1-32.5,21.2-68.2,21.2-107.1c0-39.8-7.1-75.9-21.2-108.2c-14.1-32.3-33.9-60.4-59.4-84.4
		c-12.5-11.7-26-22.1-40.5-31.2l-2.8-1.7c-14.4-8.7-29.6-16.3-46-22.4c-7.8-2.9-15.8-5.4-23.9-7.7v115.7
		c21.2,12.7,38.1,30,50.4,52.4c6.7,12.3,11.8,25.8,15.1,40.4l78.7,47l-78.9,47.1c-3.3,14.3-8.1,27.5-14.6,39.6
		c-12.2,22.7-29.2,40.3-50.7,53.2v115.7c8.4-2.4,16.6-5,24.6-8.1c15.5-6,29.9-13.2,43.6-21.4l5.7-3.4c14.2-9,27.4-19.3,39.6-30.8
		C476.4,471.5,496.1,443.2,510.2,410.7z"/>
	<polygon class="st5" points="337.6,217.5 209.3,140.9 154.5,140.9 154.5,466.3 209.4,466.3 337.6,389.7 	"/>
	<polygon class="st6" points="154.5,466.3 154.5,140.9 209.3,140.9 34.9,36.7 34.5,36.4 34.5,570.7 34.9,570.5 209.4,466.3 	"/>
	<polygon class="st6" points="403.1,256.6 337.6,217.5 337.6,389.7 402.9,350.7 481.8,303.6 	"/>
</g>
</svg>
